<svg width="618" height="62" viewBox="0 0 618 62" fill="none" xmlns="http://www.w3.org/2000/svg">
<path d="M26.9187 0.0359039H38.0384C38.489 0.0359039 38.878 0.212844 39.2057 0.566726C39.5333 0.920608 39.6972 1.34084 39.6972 1.82743V44.6914C39.6972 45.178 39.5333 45.5983 39.2057 45.9521C38.878 46.306 38.489 46.483 38.0384 46.483H28.3317C27.2669 46.483 26.4273 45.9743 25.8129 44.9569L15.4304 28.0369V44.6914C15.4304 45.178 15.2666 45.5983 14.939 45.9521C14.6113 46.306 14.2222 46.483 13.7717 46.483H2.65199C2.20147 46.483 1.81239 46.306 1.48473 45.9521C1.15708 45.5983 0.993256 45.178 0.993256 44.6914V1.82743C0.993256 1.34084 1.15708 0.920608 1.48473 0.566726C1.81239 0.212844 2.20147 0.0359039 2.65199 0.0359039H12.3587C13.5055 0.0359039 14.3451 0.544608 14.8775 1.56202L25.26 19.9418V1.82743C25.26 1.34084 25.4238 0.920608 25.7515 0.566726C26.0791 0.212844 26.4682 0.0359039 26.9187 0.0359039ZM45.8262 36.5964C45.8262 30.6246 50.311 26.7983 59.2804 25.1173L65.7925 23.9893C65.7925 22.6623 65.6901 21.7776 65.4854 21.3352C65.2806 20.8486 64.7891 20.6053 64.0109 20.6053C63.2737 20.6053 62.5365 20.9592 61.7993 21.667C61.0621 22.3747 60.3658 22.7286 59.7105 22.7286H49.2666C48.3655 22.7286 47.915 22.2641 47.915 21.3352C47.915 20.362 48.2222 19.3446 48.8365 18.283C49.4918 17.1771 50.4134 16.0933 51.6011 15.0317C52.8298 13.97 54.5295 13.0853 56.7002 12.3776C58.9118 11.6698 61.3692 11.3159 64.0724 11.3159C69.5605 11.3159 73.6767 12.5545 76.4207 15.0317C79.1648 17.5088 80.5369 21.0477 80.5369 25.6481V44.6914C80.5369 45.178 80.3731 45.5983 80.0454 45.9521C79.7177 46.306 79.3287 46.483 78.8781 46.483H68.1271C67.6765 46.483 67.2874 46.306 66.9598 45.9521C66.6321 45.5983 66.4683 45.178 66.4683 44.6914V42.8336C64.5434 45.7089 61.7378 47.1465 58.0517 47.1465C54.3657 47.1465 51.3963 46.1512 49.1437 44.1606C46.9321 42.1258 45.8262 39.6044 45.8262 36.5964ZM61.9836 37.3263C64.6457 37.3263 65.9768 35.6011 65.9768 32.1507L62.3522 33.0133C60.5501 33.4557 59.6491 34.274 59.6491 35.4684C59.6491 35.9992 59.8538 36.4416 60.2634 36.7954C60.673 37.1493 61.2464 37.3263 61.9836 37.3263ZM122.529 26.378V44.6914C122.529 45.178 122.365 45.5983 122.038 45.9521C121.71 46.306 121.321 46.483 120.87 46.483H109.136C108.686 46.483 108.297 46.306 107.969 45.9521C107.641 45.5983 107.478 45.178 107.478 44.6914V26.8425C107.478 24.4096 106.454 23.1931 104.406 23.1931C102.358 23.1931 101.334 24.4096 101.334 26.8425V44.6914C101.334 45.178 101.17 45.5983 100.843 45.9521C100.515 46.306 100.126 46.483 99.6754 46.483H88.0028C87.5523 46.483 87.1632 46.306 86.8356 45.9521C86.5079 45.5983 86.3441 45.178 86.3441 44.6914V13.771C86.3441 13.2844 86.5079 12.8641 86.8356 12.5103C87.1632 12.1564 87.5523 11.9794 88.0028 11.9794H98.7539C99.2044 11.9794 99.5935 12.1564 99.9212 12.5103C100.249 12.8641 100.413 13.2844 100.413 13.771V15.9606C101.478 14.5893 102.911 13.4834 104.713 12.643C106.556 11.7583 108.522 11.3159 110.611 11.3159C113.969 11.3159 116.795 12.5987 119.089 15.1644C121.382 17.6858 122.529 21.4237 122.529 26.378ZM127.419 31.4872V26.9752C127.419 21.9324 129.078 18.0618 132.395 15.3634C135.713 12.6651 139.993 11.3159 145.235 11.3159C150.478 11.3159 154.758 12.6651 158.075 15.3634C161.393 18.0618 163.051 21.9324 163.051 26.9752V31.4872C163.051 36.5743 161.454 40.467 158.259 43.1653C155.065 45.8194 150.723 47.1465 145.235 47.1465C139.747 47.1465 135.406 45.8194 132.211 43.1653C129.017 40.467 127.419 36.5743 127.419 31.4872ZM148 32.018V26.4444C148 24.7634 147.795 23.5912 147.386 22.9277C146.976 22.2641 146.259 21.9324 145.235 21.9324C144.211 21.9324 143.495 22.2641 143.085 22.9277C142.675 23.5912 142.471 24.7634 142.471 26.4444V32.018C142.471 33.7874 142.675 34.9818 143.085 35.6011C143.495 36.2204 144.211 36.53 145.235 36.53C146.259 36.53 146.976 36.1983 147.386 35.5347C147.795 34.8712 148 33.699 148 32.018Z" fill="#2D9E1A"/>
<path d="M187.659 0.663529H223.66C224.11 0.663529 224.499 0.84047 224.827 1.19435C225.154 1.54823 225.318 1.96847 225.318 2.45506V13.1379C225.318 13.6245 225.154 14.0447 224.827 14.3986C224.499 14.7525 224.11 14.9294 223.66 14.9294H213.461V45.3191C213.461 45.8056 213.298 46.2259 212.97 46.5798C212.642 46.9336 212.253 47.1106 211.803 47.1106H199.516C199.065 47.1106 198.676 46.9336 198.348 46.5798C198.021 46.2259 197.857 45.8056 197.857 45.3191V14.9294H187.659C187.208 14.9294 186.819 14.7525 186.491 14.3986C186.164 14.0447 186 13.6245 186 13.1379V2.45506C186 1.96847 186.164 1.54823 186.491 1.19435C186.819 0.84047 187.208 0.663529 187.659 0.663529ZM262.683 33.7736H244.375V34.1054C244.375 36.8038 245.174 38.1529 246.771 38.1529C247.221 38.1529 247.774 37.7991 248.43 37.0913C249.085 36.3835 249.802 36.0296 250.58 36.0296H262.191C263.092 36.0296 263.543 36.5162 263.543 37.4894C263.543 39.6569 262.027 41.9129 258.996 44.2574C256.007 46.6019 251.931 47.7741 246.771 47.7741C241.651 47.7741 237.453 46.3365 234.177 43.4612C230.941 40.5416 229.323 36.5383 229.323 31.4513V28.2664C229.323 23.4447 230.982 19.5299 234.3 16.5219C237.617 13.4696 241.959 11.9435 247.324 11.9435C252.73 11.9435 256.908 13.6466 259.857 17.0527C262.846 20.4588 264.341 24.7718 264.341 29.9915V31.9821C264.341 32.4687 264.177 32.8889 263.85 33.2428C263.522 33.5967 263.133 33.7736 262.683 33.7736ZM249.29 25.2141C249.29 22.56 248.471 21.2329 246.832 21.2329C245.194 21.2329 244.375 22.56 244.375 25.2141V25.4795H249.29V25.2141ZM283.672 27.5365V32.1812C283.672 33.6852 283.856 34.7689 284.225 35.4325C284.593 36.096 285.167 36.4278 285.945 36.4278C286.723 36.4278 287.256 36.2951 287.542 36.0296C287.829 35.72 288.116 35.1671 288.402 34.3708C288.73 33.5304 289.324 33.1101 290.184 33.1101H302.164C302.614 33.1101 303.003 33.2871 303.331 33.6409C303.659 33.9948 303.823 34.4593 303.823 35.0343C303.823 35.6094 303.638 36.3835 303.27 37.3567C302.901 38.3299 302.266 39.4358 301.365 40.6744C300.464 41.9129 299.358 43.0631 298.048 44.1247C296.737 45.1421 295.017 46.0047 292.887 46.7125C290.757 47.4202 288.402 47.7741 285.822 47.7741C280.703 47.7741 276.545 46.3365 273.351 43.4612C270.197 40.5416 268.62 36.5162 268.62 31.3849V28.3327C268.62 23.2014 270.197 19.1981 273.351 16.3228C276.545 13.4033 280.703 11.9435 285.822 11.9435C288.853 11.9435 291.597 12.4522 294.054 13.4696C296.512 14.4428 298.396 15.6593 299.706 17.1191C301.058 18.5346 302.082 19.928 302.778 21.2993C303.474 22.6706 303.823 23.7322 303.823 24.4842C303.823 25.192 303.659 25.7228 303.331 26.0767C303.003 26.4306 302.614 26.6075 302.164 26.6075H290.184C289.406 26.6075 288.812 26.1652 288.402 25.2805C287.829 23.9534 287.071 23.2899 286.129 23.2899C284.491 23.2899 283.672 24.7054 283.672 27.5365ZM324.016 27.4701V45.3191C324.016 45.8056 323.852 46.2259 323.524 46.5798C323.197 46.9336 322.808 47.1106 322.357 47.1106H310.377C309.927 47.1106 309.538 46.9336 309.21 46.5798C308.882 46.2259 308.719 45.8056 308.719 45.3191V1.79153C308.719 1.30494 308.882 0.884706 309.21 0.530824C309.538 0.176941 309.927 0 310.377 0H322.357C322.808 0 323.197 0.176941 323.524 0.530824C323.852 0.884706 324.016 1.30494 324.016 1.79153V16.0574C326.35 13.3148 329.34 11.9435 332.985 11.9435C336.63 11.9435 339.641 13.2264 342.016 15.792C344.392 18.3576 345.579 22.0955 345.579 27.0056V45.2527C345.579 45.7393 345.416 46.1595 345.088 46.5134C344.76 46.8673 344.371 47.0442 343.921 47.0442H331.879C331.429 47.0442 331.04 46.8673 330.712 46.5134C330.385 46.1595 330.221 45.7393 330.221 45.2527V27.4701C330.221 25.0372 329.176 23.8207 327.088 23.8207C325.04 23.8207 324.016 25.0372 324.016 27.4701ZM387.62 27.0056V45.3191C387.62 45.8056 387.456 46.2259 387.128 46.5798C386.8 46.9336 386.411 47.1106 385.961 47.1106H374.227C373.776 47.1106 373.387 46.9336 373.06 46.5798C372.732 46.2259 372.568 45.8056 372.568 45.3191V27.4701C372.568 25.0372 371.544 23.8207 369.496 23.8207C367.448 23.8207 366.425 25.0372 366.425 27.4701V45.3191C366.425 45.8056 366.261 46.2259 365.933 46.5798C365.605 46.9336 365.216 47.1106 364.766 47.1106H353.093C352.643 47.1106 352.254 46.9336 351.926 46.5798C351.598 46.2259 351.434 45.8056 351.434 45.3191V14.3986C351.434 13.912 351.598 13.4918 351.926 13.1379C352.254 12.784 352.643 12.6071 353.093 12.6071H363.844C364.295 12.6071 364.684 12.784 365.012 13.1379C365.339 13.4918 365.503 13.912 365.503 14.3986V16.5882C366.568 15.2169 368.001 14.1111 369.803 13.2706C371.647 12.3859 373.612 11.9435 375.701 11.9435C379.06 11.9435 381.886 13.2264 384.179 15.792C386.473 18.3134 387.62 22.0513 387.62 27.0056ZM392.51 32.1148V27.6028C392.51 22.56 394.168 18.6894 397.486 15.9911C400.803 13.2927 405.083 11.9435 410.326 11.9435C415.568 11.9435 419.848 13.2927 423.166 15.9911C426.483 18.6894 428.142 22.56 428.142 27.6028V32.1148C428.142 37.2019 426.544 41.0946 423.35 43.7929C420.155 46.4471 415.814 47.7741 410.326 47.7741C404.838 47.7741 400.496 46.4471 397.302 43.7929C394.107 41.0946 392.51 37.2019 392.51 32.1148ZM413.09 32.6456V27.072C413.09 25.3911 412.885 24.2188 412.476 23.5553C412.066 22.8918 411.35 22.56 410.326 22.56C409.302 22.56 408.585 22.8918 408.175 23.5553C407.766 24.2188 407.561 25.3911 407.561 27.072V32.6456C407.561 34.4151 407.766 35.6094 408.175 36.2287C408.585 36.848 409.302 37.1576 410.326 37.1576C411.35 37.1576 412.066 36.8259 412.476 36.1624C412.885 35.4988 413.09 34.3266 413.09 32.6456ZM446.043 47.1106H435.046C434.596 47.1106 434.207 46.9336 433.879 46.5798C433.551 46.2259 433.388 45.8056 433.388 45.3191V1.79153C433.388 1.30494 433.551 0.884706 433.879 0.530824C434.207 0.176941 434.596 0 435.046 0H446.043C446.494 0 446.883 0.176941 447.21 0.530824C447.538 0.884706 447.702 1.30494 447.702 1.79153V45.3191C447.702 45.8056 447.538 46.2259 447.21 46.5798C446.883 46.9336 446.494 47.1106 446.043 47.1106ZM452.925 32.1148V27.6028C452.925 22.56 454.583 18.6894 457.901 15.9911C461.218 13.2927 465.498 11.9435 470.741 11.9435C475.983 11.9435 480.263 13.2927 483.581 15.9911C486.898 18.6894 488.557 22.56 488.557 27.6028V32.1148C488.557 37.2019 486.96 41.0946 483.765 43.7929C480.57 46.4471 476.229 47.7741 470.741 47.7741C465.253 47.7741 460.911 46.4471 457.717 43.7929C454.522 41.0946 452.925 37.2019 452.925 32.1148ZM473.505 32.6456V27.072C473.505 25.3911 473.301 24.2188 472.891 23.5553C472.481 22.8918 471.765 22.56 470.741 22.56C469.717 22.56 469 22.8918 468.591 23.5553C468.181 24.2188 467.976 25.3911 467.976 27.072V32.6456C467.976 34.4151 468.181 35.6094 468.591 36.2287C469 36.848 469.717 37.1576 470.741 37.1576C471.765 37.1576 472.481 36.8259 472.891 36.1624C473.301 35.4988 473.505 34.3266 473.505 32.6456ZM492.881 30.5887V27.2047C492.881 22.2504 494.11 18.4682 496.567 15.8584C499.025 13.2485 502.158 11.9435 505.967 11.9435C509.776 11.9435 512.786 13.4475 514.998 16.4555V14.3986C514.998 13.912 515.162 13.4918 515.489 13.1379C515.817 12.784 516.206 12.6071 516.657 12.6071H527.408C527.858 12.6071 528.247 12.784 528.575 13.1379C528.903 13.4918 529.066 13.912 529.066 14.3986L529.128 45.9826C529.128 51.2908 527.53 55.2278 524.336 57.7934C521.141 60.4033 516.943 61.7082 511.742 61.7082C508.506 61.7082 505.619 61.2216 503.079 60.2485C500.54 59.3195 498.636 58.1694 497.366 56.7981C494.786 54.0555 493.496 51.7332 493.496 49.8311C493.496 49.3445 493.659 48.9242 493.987 48.5704C494.315 48.2165 494.704 48.0395 495.154 48.0395H507.134C507.871 48.0395 508.465 48.5261 508.916 49.4993C509.407 50.5167 510.247 51.0254 511.435 51.0254C513.196 51.0254 514.076 49.8311 514.076 47.4424V42.7313C512.069 44.6334 509.223 45.5845 505.537 45.5845C501.892 45.5845 498.861 44.3901 496.444 42.0014C494.069 39.6127 492.881 35.8085 492.881 30.5887ZM511.005 34.0391C512.929 34.0391 513.953 32.9332 514.076 30.7214V27.1383C513.953 24.9266 512.929 23.8207 511.005 23.8207C508.957 23.8207 507.933 25.1035 507.933 27.6692V30.1906C507.933 32.7562 508.957 34.0391 511.005 34.0391Z" fill="#2D9E1A"/>
<path d="M552 11H537V46H552V11Z" fill="#2D9E1A"/>
<path d="M586.653 34.8928H572.026V35.2255C572.026 37.9316 572.664 39.2847 573.94 39.2847C574.3 39.2847 574.742 38.9298 575.265 38.22C575.789 37.5102 576.361 37.1553 576.983 37.1553H586.26C586.98 37.1553 587.34 37.6433 587.34 38.6192C587.34 40.793 586.129 43.0555 583.708 45.4067C581.319 47.7579 578.063 48.9335 573.94 48.9335C569.85 48.9335 566.496 47.4917 563.878 44.6081C561.293 41.6802 560 37.6654 560 32.5638V29.3697C560 24.5342 561.325 20.6081 563.976 17.5915C566.626 14.5305 570.095 13 574.382 13C578.701 13 582.039 14.708 584.395 18.1238C586.784 21.5397 587.978 25.8651 587.978 31.0998V33.0961C587.978 33.5841 587.847 34.0055 587.585 34.3604C587.324 34.7153 587.013 34.8928 586.653 34.8928ZM575.952 26.3087C575.952 23.647 575.298 22.3161 573.989 22.3161C572.68 22.3161 572.026 23.647 572.026 26.3087V26.5749H575.952V26.3087ZM605.729 38.6858C605.729 38.2421 605.647 37.8872 605.483 37.6211C605.058 36.9113 603.487 36.2237 600.771 35.5582C598.055 34.8484 595.847 33.6285 594.145 31.8983C592.476 30.1238 591.642 27.6617 591.642 24.512C591.642 21.3623 592.754 18.6562 594.979 16.3937C597.205 14.1312 600.199 13 603.962 13C607.758 13 610.866 14.0647 613.288 16.1941C615.709 18.3235 616.92 20.475 616.92 22.6488C616.92 23.1368 616.806 23.5582 616.577 23.9131C616.38 24.268 616.135 24.4455 615.84 24.4455H607.594C607.103 24.4455 606.498 24.0906 605.778 23.3808C605.058 22.671 604.518 22.3161 604.158 22.3161C603.406 22.3161 603.029 22.671 603.029 23.3808C603.029 23.8244 603.111 24.1793 603.275 24.4455C603.7 25.1109 605.483 25.7542 608.625 26.3752C611.766 26.9963 614.106 28.3715 615.644 30.5009C617.215 32.586 618 34.915 618 37.488C618 41.0813 616.806 43.8983 614.417 45.939C612.028 47.9797 608.641 49 604.256 49C601.933 49 599.871 48.6451 598.072 47.9353C596.272 47.2255 594.898 46.3383 593.949 45.2736C592.083 43.1885 591.151 41.2366 591.151 39.4177C591.151 38.9298 591.265 38.5083 591.494 38.1534C591.723 37.7985 592.002 37.6211 592.329 37.6211H600.87C601.328 37.6211 601.917 37.976 602.637 38.6858C603.389 39.3512 604.093 39.6839 604.747 39.6839C605.402 39.6839 605.729 39.3512 605.729 38.6858Z" fill="#2D9E1A"/>
</svg>
